<svg width="1024" height="1024" viewBox="0 0 1024 1024" fill="none" xmlns="http://www.w3.org/2000/svg">
<g clip-path="url(#clip0_215_133)">
<path d="M645.248 509.544L639.368 508.17L580.728 938.44C639.885 929.027 696.409 907.309 746.648 874.688V637.816C746.646 577.472 703.998 523.504 645.248 509.544V509.544ZM387.492 508.06L381.666 509.324C315.386 523.668 263.45 580.11 263.45 637.816V865.29C316.704 902.828 378.862 928.656 446.078 938.934L387.492 508.06Z" fill="#33CCFF"/>
<path d="M512.832 230.436C452.472 230.436 403.366 279.542 403.366 339.9C403.366 400.258 452.472 449.364 512.832 449.364C573.192 449.364 622.298 400.258 622.298 339.9C622.298 279.542 573.192 230.436 512.832 230.436V230.436Z" fill="#F1998A"/>
<path d="M512.83 194.028C432.394 194.028 366.954 259.466 366.954 339.9C366.954 420.336 432.394 485.774 512.83 485.774C593.266 485.774 658.704 420.336 658.704 339.9C658.704 259.464 593.266 194.028 512.83 194.028V194.028ZM512.83 469.288C441.486 469.288 383.442 411.244 383.442 339.9C383.442 268.558 441.486 210.516 512.83 210.516C584.174 210.516 642.216 268.558 642.216 339.902C642.216 411.246 584.174 469.288 512.83 469.288Z" fill="#4B555F"/>
<path d="M613.776 469.368C613 469.318 612.223 469.296 611.446 469.302H400.042C304.696 469.302 227.13 546.87 227.13 642.214V843.672H243.618V642.216C243.618 555.962 313.79 485.79 400.042 485.79H611.448C611.816 485.79 612.212 485.776 612.578 485.812L613.298 485.852C698.532 486.8 767.874 556.944 767.874 642.216V853.684H784.362V642.216C784.36 548.052 707.866 470.574 613.776 469.368V469.368Z" fill="#4B555F"/>
<path d="M494.1 532.132L493.3 522.784L451.568 472.294L445.214 469.302H411.992L403.818 478.612L464.38 943.15L480.728 941.02L439.796 626.948L494.1 532.132ZM421.382 485.79H441.334L476.958 528.89L436.27 599.928L421.382 485.79V485.79ZM613.388 469.304H584.92L578.676 472.166L536.882 520.654L535.8 529.816L586.18 627.46L546.77 940.748L563.128 942.806L621.564 478.644L621.628 477.55L613.388 469.304V469.304ZM589.826 598.562L553.006 527.2L588.7 485.79H604.048L589.826 598.562V598.562ZM505.166 559.506H521.654V943.902H505.166V559.506Z" fill="#4B555F"/>
<path d="M536.976 520.538L513.572 546.902L493.282 522.732L480.652 533.332L513.222 572.128L549.304 531.484L536.976 520.538ZM700.742 732.746H717.23V896.476H700.742V732.746ZM300.328 732.746H316.816V893.098H300.328V732.746Z" fill="#4B555F"/>
<path d="M511.998 71.828C269.29 71.828 71.8339 269.286 71.8339 511.992C71.8339 754.698 269.29 952.156 511.998 952.156C754.706 952.156 952.162 754.698 952.162 511.992C952.162 269.286 754.706 71.828 511.998 71.828ZM511.998 935.67C278.382 935.67 88.3219 745.61 88.3219 511.994C88.3219 278.378 278.382 88.318 511.998 88.318C745.614 88.318 935.674 278.378 935.674 511.994C935.674 745.61 745.616 935.67 511.998 935.67ZM29.2639 399.716L13.1999 395.996C11.9412 401.437 10.7711 406.899 9.68994 412.378L25.8659 415.568C26.9092 410.265 28.042 404.98 29.2639 399.716V399.716ZM150.356 173.252L138.324 161.978C134.505 166.054 130.753 170.192 127.07 174.39L139.462 185.266C143.027 181.202 146.659 177.197 150.356 173.252V173.252ZM16.4899 511.996C16.4899 506.656 16.5759 501.334 16.7419 496.036L0.265943 495.51C0.0894544 501.068 0.00277647 506.628 0.00594308 512.188L2.74794 512.21L16.4899 511.996V511.996ZM48.0479 337.588L32.6119 331.788C30.6415 337.031 28.7572 342.307 26.9599 347.612L42.5779 352.902C44.3161 347.767 46.1397 342.662 48.0479 337.588V337.588ZM18.8159 463.676L2.40394 462.084C1.86621 467.642 1.41882 473.209 1.06194 478.782L17.5179 479.834C17.8639 474.424 18.2959 469.036 18.8159 463.676V463.676ZM22.9899 431.522L6.71794 428.866C5.81916 434.378 5.01039 439.905 4.29194 445.444L20.6399 447.564C21.3359 442.188 22.1199 436.842 22.9899 431.522V431.522ZM109.19 223.354L95.7939 213.744C92.5362 218.286 89.3512 222.879 86.2399 227.522L99.9419 236.694C102.951 232.197 106.035 227.75 109.19 223.354V223.354ZM128.962 197.63L116.22 187.164C112.674 191.482 109.198 195.857 105.792 200.286L118.866 210.334C122.162 206.044 125.527 201.809 128.962 197.63V197.63ZM91.1339 250.326L77.1359 241.61C74.1806 246.357 71.3015 251.151 68.4999 255.99L82.7699 264.248C85.4837 259.563 88.272 254.922 91.1339 250.326V250.326ZM74.8719 278.436L60.3379 270.656C57.6965 275.589 55.1362 280.565 52.6579 285.582L67.4439 292.882C69.8439 288.018 72.3199 283.202 74.8719 278.436ZM60.4879 307.562L45.4719 300.756C43.1605 305.854 40.9329 310.99 38.7899 316.162L54.0219 322.474C56.0961 317.469 58.2518 312.497 60.4879 307.562V307.562ZM37.6139 368.39L21.8299 363.622C20.2155 368.968 18.6887 374.34 17.2499 379.736L33.1799 383.986C34.5721 378.763 36.0503 373.564 37.6139 368.39V368.39ZM16.7559 528.466L0.279943 529.002C0.461943 534.602 0.733943 540.182 1.09794 545.736L17.5479 544.662C17.1961 539.268 16.9321 533.869 16.7559 528.466V528.466ZM109.128 800.544L95.7259 810.152C98.9778 814.685 102.303 819.165 105.7 823.59L118.78 813.548C115.492 809.267 112.274 804.931 109.128 800.544V800.544ZM138.19 861.868C142.005 865.944 145.887 869.958 149.834 873.906L161.496 862.252C157.677 858.429 153.921 854.545 150.228 850.6L138.19 861.868ZM128.856 826.236L116.114 836.7C119.655 841.013 123.266 845.268 126.944 849.464L139.34 838.594C135.78 834.531 132.284 830.411 128.856 826.236V826.236ZM162.012 138.294C157.939 142.112 153.928 145.995 149.98 149.942L161.638 161.602C165.461 157.78 169.346 154.021 173.29 150.324L162.012 138.294V138.294ZM91.1159 773.632L77.1239 782.35C80.0714 787.082 83.0958 791.766 86.1959 796.4L99.8979 787.234C96.8993 782.746 93.9716 778.212 91.1159 773.632V773.632ZM23.0719 592.97L6.80394 595.646C7.70994 601.172 8.70594 606.666 9.78994 612.128L25.9599 608.922C24.9127 603.62 23.9499 598.302 23.0719 592.97V592.97ZM29.3779 624.77L13.3199 628.506C14.5866 633.945 15.9407 639.363 17.3819 644.758L33.3119 640.496C31.9139 635.276 30.6024 630.033 29.3779 624.77V624.77ZM60.5859 716.63L45.5699 723.436C47.8703 728.511 50.256 733.547 52.7259 738.542L67.5059 731.234C65.1159 726.406 62.8089 721.537 60.5859 716.63V716.63ZM37.7639 656.086L21.9839 660.868C23.6054 666.214 25.3157 671.533 27.1139 676.822L42.7219 671.514C40.9846 666.399 39.3317 661.256 37.7639 656.086V656.086ZM48.1959 686.776L32.7659 692.592C34.7307 697.801 36.7803 702.978 38.9139 708.12L54.1399 701.8C52.0752 696.825 50.0936 691.817 48.1959 686.776V686.776ZM74.91 745.618L60.3759 753.406C63.0083 758.318 65.72 763.186 68.5099 768.01L82.7799 759.756C80.0802 755.086 77.4566 750.373 74.91 745.618V745.618ZM963.292 307.096L978.304 300.274C975.999 295.202 973.609 290.168 971.136 285.176L956.36 292.492C958.751 297.321 961.062 302.19 963.292 307.096V307.096ZM948.946 278.114L963.474 270.318C960.839 265.408 958.125 260.54 955.332 255.718L941.066 263.98C943.769 268.648 946.396 273.36 948.946 278.114ZM932.724 250.112L946.71 241.386C943.76 236.654 940.732 231.972 937.628 227.34L923.932 236.516C926.932 240.996 929.862 245.528 932.724 250.112ZM894.954 197.532L907.69 187.06C904.145 182.749 900.531 178.496 896.848 174.302L884.46 185.18C888.024 189.24 891.52 193.356 894.954 197.532V197.532ZM975.698 336.938L991.122 331.114C989.155 325.906 987.103 320.731 984.966 315.59L969.74 321.918C971.808 326.892 973.794 331.899 975.698 336.938V336.938ZM914.692 223.21L928.088 213.598C924.833 209.067 921.505 204.588 918.106 200.164L905.032 210.21C908.324 214.489 911.544 218.823 914.692 223.21V223.21ZM1005.1 462.87L1021.51 461.266C1020.97 455.707 1020.33 450.156 1019.6 444.618L1003.25 446.768C1003.96 452.108 1004.57 457.476 1005.1 462.87V462.87ZM986.144 367.624L1001.92 362.834C1000.29 357.488 998.583 352.17 996.782 346.882L981.174 352.198C982.917 357.312 984.574 362.454 986.144 367.624V367.624ZM278.246 74.978L270.458 60.444C265.545 63.0776 260.676 65.7913 255.852 68.584L264.112 82.852C268.78 80.151 273.492 77.526 278.246 74.978V74.978ZM1000.87 430.728L1017.14 428.052C1016.24 422.541 1015.24 417.045 1014.15 411.568L997.976 414.78C999.029 420.08 999.995 425.397 1000.87 430.728ZM994.552 398.936L1010.61 395.192C1009.34 389.752 1007.98 384.333 1006.53 378.938L990.61 383.216C992.011 388.434 993.325 393.675 994.552 398.936V398.936ZM1007.23 495.232L1023.7 494.688C1023.52 489.088 1023.24 483.51 1022.88 477.956L1006.43 479.038C1006.78 484.412 1007.05 489.81 1007.23 495.232V495.232ZM367.768 37.802L362.976 22.026C357.622 23.654 352.306 25.366 347.028 27.16L352.336 42.77C357.452 41.0287 362.597 39.3725 367.768 37.802V37.802ZM399.078 29.408L395.332 13.352C389.894 14.6196 384.477 15.9765 379.084 17.422L383.356 33.346C388.575 31.9494 393.817 30.6366 399.078 29.408V29.408ZM430.876 23.094L428.198 6.826C422.688 7.73364 417.193 8.73178 411.716 9.82L414.93 25.99C420.229 24.9377 425.545 23.9722 430.876 23.094V23.094ZM885.596 161.902C881.778 157.828 877.892 153.816 873.942 149.87L862.29 161.532C866.112 165.351 869.87 169.233 873.564 173.176L885.596 161.902ZM307.232 60.64L300.41 45.628C295.338 47.9323 290.305 50.3207 285.312 52.792L292.622 67.57C297.454 65.1798 302.324 62.8695 307.232 60.64V60.64ZM337.078 48.242L331.254 32.818C326.04 34.788 320.866 36.838 315.732 38.97L322.054 54.196C327.03 52.131 332.038 50.1461 337.078 48.242ZM861.902 138.226C857.826 134.405 853.688 130.652 849.488 126.968L838.614 139.364C842.678 142.927 846.683 146.558 850.626 150.254L861.902 138.226V138.226ZM836.71 116.124C832.393 112.58 828.019 109.105 823.59 105.702L813.544 118.776C817.833 122.072 822.069 125.436 826.25 128.868L836.71 116.124ZM495.382 16.762L494.834 0.282C489.234 0.468 483.658 0.742 478.108 1.104L479.182 17.556C484.56 17.206 489.958 16.94 495.382 16.762ZM810.124 95.706C805.583 92.4483 800.989 89.2645 796.344 86.156L787.172 99.858C791.669 102.866 796.116 105.948 800.512 109.102L810.124 95.706ZM463.022 18.878L461.412 2.468C455.842 3.016 450.292 3.652 444.772 4.376L446.918 20.724C452.26 20.022 457.628 19.406 463.022 18.878V18.878ZM18.8679 560.828L2.45594 562.424C2.99994 568 3.63594 573.55 4.35794 579.072L20.7059 576.93C20.0059 571.588 19.3899 566.222 18.8679 560.828ZM773.548 932.942L782.264 946.94C786.997 943.992 791.683 940.968 796.318 937.868L787.152 924.164C782.665 927.164 778.13 930.09 773.548 932.942ZM745.538 949.142L753.32 963.676C758.234 961.046 763.105 958.335 767.93 955.546L759.676 941.274C755.005 943.972 750.292 946.595 745.538 949.142V949.142ZM800.464 914.942L810.076 928.336C814.607 925.085 819.086 921.761 823.51 918.366L813.474 905.286C809.189 908.573 804.851 911.792 800.464 914.942V914.942ZM767.87 68.424L759.62 82.7C764.306 85.408 768.946 88.1931 773.54 91.054L782.256 77.06C777.508 74.1032 772.712 71.2241 767.87 68.424V68.424ZM826.16 895.214L836.62 907.956C840.935 904.416 845.192 900.805 849.388 897.124L838.514 884.728C834.453 888.291 830.335 891.786 826.16 895.214V895.214ZM873.468 850.932L885.496 862.208C889.315 858.134 893.069 854 896.756 849.806L884.368 838.922C880.799 842.984 877.166 846.987 873.468 850.932V850.932ZM850.53 873.844L861.796 885.88C865.873 882.066 869.887 878.185 873.836 874.238L862.184 862.572C858.36 866.392 854.475 870.149 850.53 873.844V873.844ZM686.64 975.864L692.448 991.294C697.676 989.325 702.872 987.27 708.032 985.13L701.714 969.902C696.722 971.972 691.697 973.96 686.64 975.864V975.864ZM676.236 26.912L670.95 42.53C676.084 44.2665 681.189 46.0887 686.262 47.996L692.064 32.564C686.819 30.593 681.543 28.7087 676.236 26.912V26.912ZM738.276 52.592L730.982 67.378C735.842 69.778 740.658 72.252 745.424 74.804L753.206 60.27C748.272 57.628 743.295 55.0683 738.276 52.592V52.592ZM707.688 38.732L701.382 53.966C706.386 56.0375 711.356 58.1925 716.288 60.43L723.098 45.414C717.999 43.1005 712.862 40.8729 707.688 38.732V38.732ZM716.536 963.464L723.352 978.478C728.424 976.175 733.459 973.79 738.454 971.324L731.15 956.542C726.317 958.93 721.445 961.238 716.536 963.464V963.464ZM949.002 745.784L963.536 753.572C966.176 748.646 968.74 743.672 971.222 738.65L956.442 731.342C954.041 736.196 951.561 741.011 949.002 745.784V745.784ZM161.866 885.56C165.941 889.382 170.077 893.137 174.274 896.824L185.154 884.434C181.092 880.868 177.09 877.236 173.148 873.538L161.866 885.56V885.56ZM1000.97 592.724L1017.24 595.388C1018.14 589.894 1018.95 584.366 1019.67 578.814L1003.33 576.686C1002.63 582.06 1001.84 587.406 1000.97 592.724V592.724ZM1023.99 511.44H1007.5L1007.51 512.004C1007.51 517.43 1007.42 522.836 1007.25 528.22L1023.72 528.746C1023.9 523.188 1023.99 517.606 1023.99 511.886V511.44V511.44ZM1005.16 560.576L1021.57 562.176C1022.11 556.636 1022.56 551.068 1022.92 545.478L1006.46 544.418C1006.12 549.811 1005.68 555.197 1005.16 560.576ZM986.31 655.846L1002.09 660.622C1003.71 655.277 1005.24 649.907 1006.68 644.512L990.752 640.254C989.356 645.475 987.876 650.673 986.31 655.846V655.846ZM894.876 826.568L907.612 837.036C911.159 832.72 914.638 828.348 918.046 823.922L904.978 813.866C901.678 818.154 898.311 822.388 894.876 826.568ZM975.862 686.646L991.292 692.454C993.264 687.212 995.151 681.938 996.952 676.634L981.34 671.336C979.596 676.468 977.77 681.572 975.862 686.646V686.646ZM932.732 773.884L946.724 782.608C949.684 777.863 952.566 773.069 955.368 768.228L941.098 759.968C938.385 764.652 935.596 769.291 932.732 773.884ZM914.66 800.85L928.056 810.466C931.314 805.926 934.5 801.335 937.612 796.694L923.916 787.514C920.903 792.009 917.817 796.455 914.66 800.85V800.85ZM963.404 716.664L978.416 723.478C980.731 718.381 982.961 713.247 985.106 708.076L969.88 701.756C967.803 706.76 965.644 711.73 963.404 716.664V716.664ZM655.938 986.284L660.72 1002.06C666.066 1000.44 671.384 998.735 676.674 996.94L671.372 981.328C666.255 983.064 661.109 984.717 655.938 986.284V986.284ZM994.68 624.528L1010.74 628.256C1012 622.815 1013.18 617.354 1014.26 611.874L998.082 608.678C997.036 613.98 995.901 619.264 994.68 624.528V624.528ZM241.478 946.774C246.224 949.734 251.018 952.616 255.858 955.418L264.118 941.15C259.434 938.439 254.795 935.651 250.204 932.786L241.478 946.774V946.774ZM270.514 963.584C275.446 966.229 280.422 968.791 285.44 971.27L292.744 956.49C287.891 954.091 283.077 951.612 278.306 949.054L270.514 963.584ZM300.612 978.458C305.71 980.773 310.846 983.004 316.018 985.148L322.336 969.92C317.332 967.845 312.362 965.688 307.43 963.448L300.612 978.458V978.458ZM395.846 1010.76C401.27 1012.02 406.73 1013.2 412.224 1014.28L415.422 998.106C410.106 997.056 404.822 995.92 399.57 994.702L395.846 1010.76ZM331.642 991.326C336.874 993.298 342.15 995.184 347.466 996.986L352.758 981.37C347.625 979.628 342.521 977.802 337.448 975.894L331.642 991.326ZM644.106 17.208L639.866 33.14C645.098 34.534 650.296 36.01 655.454 37.57L660.226 21.788C654.879 20.1712 649.505 18.6443 644.106 17.208V17.208ZM187.174 116.208C182.863 119.751 178.61 123.364 174.416 127.044L185.29 139.436C189.35 135.874 193.47 132.376 197.644 128.944L187.174 116.208V116.208ZM187.04 907.674C191.356 911.223 195.73 914.702 200.16 918.108L210.212 905.036C205.925 901.74 201.693 898.374 197.516 894.94L187.04 907.674ZM213.714 95.814C209.183 99.0679 204.705 102.396 200.282 105.796L210.33 118.868C214.612 115.579 218.946 112.358 223.332 109.208L213.714 95.814V95.814ZM241.514 77.198C236.782 80.1476 232.099 83.1747 227.466 86.278L236.638 99.978C241.122 96.9748 245.656 94.0451 250.236 91.19L241.514 77.198ZM213.616 928.11C218.156 931.372 222.749 934.559 227.394 937.67L236.572 923.974C232.078 920.963 227.633 917.879 223.24 914.722L213.616 928.11ZM363.474 1002.12C368.808 1003.73 374.182 1005.26 379.586 1006.71L383.842 990.778C378.62 989.384 373.422 987.903 368.25 986.336L363.474 1002.12V1002.12ZM592.82 1000.96L595.492 1017.23C601.014 1016.32 606.51 1015.32 611.974 1014.24L608.77 998.07C603.47 999.121 598.152 1000.08 592.82 1000.96V1000.96ZM578.4 4.268L576.286 20.618C581.658 21.314 587.006 22.096 592.326 22.964L594.978 6.692C589.466 5.79291 583.939 4.9848 578.4 4.268V4.268ZM611.466 9.656L608.284 25.832C613.598 26.878 618.882 28.01 624.13 29.226L627.85 13.162C622.408 11.9033 616.946 10.7344 611.466 9.656V9.656ZM560.676 1005.15L562.28 1021.56C567.852 1021.02 573.398 1020.39 578.918 1019.67L576.782 1003.32C571.423 1004.02 566.054 1004.63 560.676 1005.15V1005.15ZM624.624 994.662L628.36 1010.72C633.808 1009.45 639.226 1008.1 644.612 1006.66L640.35 990.732C635.129 992.126 629.887 993.436 624.624 994.662V994.662ZM511.998 0H511.59L511.998 16.488C517.29 16.488 522.564 16.572 527.814 16.734L528.33 0.254C522.888 0.0850319 517.443 0.000355106 511.998 0V0ZM545.058 1.05L544.012 17.506C549.422 17.85 554.81 18.282 560.172 18.8L561.756 2.388C556.198 1.85053 550.631 1.40447 545.058 1.05V1.05ZM495.882 1007.25L495.356 1023.73C500.882 1023.91 506.43 1024 512 1024H512.1L512 1007.51C506.608 1007.51 501.236 1007.43 495.882 1007.25ZM461.934 1021.58C467.47 1022.12 473.036 1022.57 478.628 1022.93L479.686 1006.48C474.293 1006.13 468.907 1005.7 463.528 1005.17L461.934 1021.58ZM428.714 1017.26C434.208 1018.16 439.736 1018.97 445.29 1019.69L447.418 1003.34C442.042 1002.64 436.698 1001.86 431.382 1000.99L428.714 1017.26ZM528.32 1007.25L528.852 1023.73C534.452 1023.55 540.032 1023.28 545.584 1022.92L544.516 1006.46C539.14 1006.81 533.744 1007.07 528.32 1007.25Z" fill="#FDCC32"/>
</g>
<defs>
<clipPath id="clip0_215_133">
<rect width="1024" height="1024" fill="white"/>
</clipPath>
</defs>
</svg>
