<svg width="480" height="480" viewBox="0 0 480 480" fill="none" xmlns="http://www.w3.org/2000/svg">
<g clip-path="url(#clip0_214_2)">
<path d="M229.296 154.504L205.88 90.504C203.568 84.192 197.568 80 190.856 80H151.744C145.024 80 139.024 84.192 136.72 90.504L113.304 154.504C109.472 164.944 117.2 176 128.32 176H214.272C225.392 176 233.12 164.944 229.296 154.504Z" fill="#FDCC32"/>
<path d="M181.928 122.16C186.527 122.16 190.256 118.431 190.256 113.832C190.256 109.232 186.527 105.504 181.928 105.504C177.329 105.504 173.6 109.232 173.6 113.832C173.6 118.431 177.329 122.16 181.928 122.16Z" fill="#F9D58F"/>
<path d="M342.272 176H256.32C245.2 176 237.472 164.944 241.296 154.504L264.72 90.504C267.024 84.192 273.024 80 279.744 80H318.856C325.576 80 331.576 84.192 333.88 90.504L357.296 154.504C361.12 164.944 353.392 176 342.272 176Z" fill="#FDCC32"/>
<path d="M312.64 122.16C317.239 122.16 320.968 118.431 320.968 113.832C320.968 109.232 317.239 105.504 312.64 105.504C308.041 105.504 304.312 109.232 304.312 113.832C304.312 118.431 308.041 122.16 312.64 122.16Z" fill="#F9D58F"/>
<path d="M150.272 272H64.32C53.2 272 45.472 260.944 49.296 250.504L72.72 186.504C75.024 180.192 81.024 176 87.744 176H126.856C133.568 176 139.576 180.192 141.88 186.504L165.296 250.504C169.12 260.944 161.392 272 150.272 272Z" fill="#FDCC32"/>
<path d="M120.64 222.16C125.239 222.16 128.968 218.431 128.968 213.832C128.968 209.232 125.239 205.504 120.64 205.504C116.041 205.504 112.312 209.232 112.312 213.832C112.312 218.431 116.041 222.16 120.64 222.16Z" fill="#F9D58F"/>
<path d="M278.272 272H192.32C181.2 272 173.472 260.944 177.296 250.504L200.712 186.504C203.024 180.192 209.024 176 215.744 176H254.856C261.576 176 267.576 180.192 269.88 186.504L293.296 250.504C297.12 260.944 289.392 272 278.272 272Z" fill="#FDCC32"/>
<path d="M249.44 222.16C254.039 222.16 257.768 218.431 257.768 213.832C257.768 209.232 254.039 205.504 249.44 205.504C244.841 205.504 241.112 209.232 241.112 213.832C241.112 218.431 244.841 222.16 249.44 222.16Z" fill="#F9D58F"/>
<path d="M406.272 272H320.32C309.2 272 301.472 260.944 305.296 250.504L328.72 186.504C331.024 180.192 337.024 176 343.744 176H382.856C389.576 176 395.576 180.192 397.88 186.504L421.296 250.504C425.12 260.944 417.392 272 406.272 272Z" fill="#FDCC32"/>
<path d="M428.816 247.752L405.392 183.752C401.944 174.328 392.888 168 382.856 168H364.832C366.672 162.792 366.76 157.056 364.816 151.752L341.392 87.752C337.944 78.328 328.888 72 318.856 72H279.744C269.712 72 260.656 78.328 257.208 87.752L235.304 147.616L213.392 87.752C209.944 78.328 200.888 72 190.856 72H151.744C141.712 72 132.656 78.328 129.208 87.752L105.792 151.752C103.848 157.056 103.928 162.792 105.776 168H87.7519C77.7199 168 68.6639 174.328 65.2159 183.752L41.7999 247.752C39.1039 255.104 40.1759 263.328 44.6639 269.752C49.1359 276.168 56.4879 280 64.3199 280H150.272C158.104 280 165.456 276.168 169.944 269.752C170.504 268.952 170.848 268.056 171.296 267.208C171.744 268.056 172.088 268.952 172.648 269.752C177.136 276.168 184.488 280 192.32 280H278.272C286.104 280 293.456 276.168 297.944 269.752C298.504 268.952 298.848 268.056 299.296 267.208C299.744 268.056 300.088 268.952 300.648 269.752C305.136 276.168 312.488 280 320.32 280H406.272C414.104 280 421.456 276.168 425.944 269.752C430.432 263.328 431.504 255.112 428.816 247.752ZM248.808 157.248L272.224 93.248C273.376 90.112 276.4 88 279.744 88H318.856C322.2 88 325.216 90.112 326.368 93.248L349.792 157.248C350.704 159.736 350.352 162.416 348.832 164.584C347.312 166.752 344.92 168 342.272 168H256.32C253.664 168 251.28 166.76 249.76 164.584C248.248 162.416 247.896 159.744 248.808 157.248ZM120.808 157.248L144.224 93.248C145.376 90.112 148.4 88 151.744 88H190.856C194.2 88 197.216 90.112 198.368 93.248L221.792 157.248C222.704 159.736 222.352 162.416 220.832 164.584C219.312 166.752 216.92 168 214.272 168H128.32C125.664 168 123.28 166.76 121.76 164.584C120.248 162.416 119.896 159.744 120.808 157.248ZM156.832 260.584C155.312 262.76 152.92 264 150.272 264H64.3199C61.6639 264 59.2799 262.76 57.7599 260.584C56.2479 258.416 55.8959 255.744 56.8079 253.248L80.2239 189.248C81.3759 186.112 84.3999 184 87.7439 184H126.856C130.2 184 133.216 186.112 134.368 189.248L157.792 253.248C158.696 255.736 158.352 258.416 156.832 260.584ZM171.296 243.616L149.48 184H193.112L171.296 243.616ZM284.832 260.584C283.312 262.76 280.92 264 278.272 264H192.32C189.664 264 187.28 262.76 185.76 260.584C184.248 258.416 183.896 255.744 184.808 253.248L208.224 189.248C209.376 186.112 212.4 184 215.744 184H254.856C258.2 184 261.216 186.112 262.368 189.248L285.792 253.248C286.696 255.736 286.352 258.416 284.832 260.584ZM299.296 243.616L277.48 184H321.112L299.296 243.616ZM412.832 260.584C411.312 262.76 408.92 264 406.272 264H320.32C317.664 264 315.28 262.76 313.76 260.584C312.248 258.416 311.896 255.744 312.808 253.248L336.224 189.248C337.376 186.112 340.4 184 343.744 184H382.856C386.2 184 389.216 186.112 390.368 189.248L413.792 253.248C414.696 255.736 414.352 258.416 412.832 260.584Z" fill="black"/>
<path d="M377.44 222.16C382.039 222.16 385.768 218.431 385.768 213.832C385.768 209.232 382.039 205.504 377.44 205.504C372.841 205.504 369.112 209.232 369.112 213.832C369.112 218.431 372.841 222.16 377.44 222.16Z" fill="#F9D58F"/>
<path d="M64 48H56V40C56 35.576 52.416 32 48 32C43.584 32 40 35.576 40 40V48H32C27.584 48 24 51.576 24 56C24 60.424 27.584 64 32 64H40V72C40 76.424 43.584 80 48 80C52.416 80 56 76.424 56 72V64H64C68.416 64 72 60.424 72 56C72 51.576 68.416 48 64 48Z" fill="black"/>
<path d="M464 123.312L469.656 117.656C472.784 114.528 472.784 109.472 469.656 106.344C466.528 103.216 461.472 103.216 458.344 106.344L452.688 112L447.032 106.344C443.904 103.216 438.848 103.216 435.72 106.344C432.592 109.472 432.592 114.528 435.72 117.656L441.376 123.312L435.72 128.968C432.592 132.096 432.592 137.152 435.72 140.28C437.28 141.84 439.328 142.624 441.376 142.624C443.424 142.624 445.472 141.84 447.032 140.28L452.688 134.624L458.344 140.28C459.904 141.84 461.952 142.624 464 142.624C466.048 142.624 468.096 141.84 469.656 140.28C472.784 137.152 472.784 132.096 469.656 128.968L464 123.312Z" fill="black"/>
<path d="M240 27.2C235.584 27.2 232 23.624 232 19.2V8C232 3.576 235.584 0 240 0C244.416 0 248 3.576 248 8V19.2C248 23.624 244.416 27.2 240 27.2Z" fill="black"/>
<path d="M288 56H268.8C264.384 56 260.8 52.424 260.8 48C260.8 43.576 264.384 40 268.8 40H288C292.416 40 296 43.576 296 48C296 52.424 292.416 56 288 56Z" fill="black"/>
<path d="M211.2 56H192C187.584 56 184 52.424 184 48C184 43.576 187.584 40 192 40H211.2C215.616 40 219.2 43.576 219.2 48C219.2 52.424 215.616 56 211.2 56Z" fill="black"/>
<path d="M219.64 35.632C217.592 35.632 215.544 34.848 213.984 33.288L200.4 19.72C197.272 16.6 197.272 11.536 200.4 8.40801C203.528 5.28001 208.592 5.28001 211.72 8.40801L225.296 21.976C228.424 25.096 228.424 30.16 225.296 33.288C223.736 34.848 221.68 35.632 219.64 35.632Z" fill="black"/>
<path d="M260.36 35.632C258.312 35.632 256.264 34.848 254.696 33.288C251.576 30.16 251.576 25.096 254.696 21.976L268.272 8.40801C271.4 5.28001 276.464 5.28001 279.592 8.40801C282.712 11.536 282.712 16.6 279.592 19.72L266.016 33.288C264.456 34.848 262.408 35.632 260.36 35.632Z" fill="black"/>
<path d="M368 328H320V464H368V328Z" fill="#F8F8FA"/>
<path d="M240 392.304H180.32C169.096 392.304 160 383.336 160 372.12V372.088C160 363.832 164.992 356.4 172.632 353.28L235.272 327.672C238.344 326.416 241.736 326.144 244.968 326.904L320 344.44L319.464 453.664L243.672 471.576C241.256 472.144 238.744 472.144 236.328 471.576L104 440.44L15.128 381.192C10.672 378.224 8 373.224 8 367.88V350C8 339.264 18.36 331.576 28.632 334.688L160 374.376" fill="#F1998A"/>
<path d="M472 472H384C375.16 472 368 464.84 368 456V336C368 327.16 375.16 320 384 320H472V472Z" fill="#33CCFF"/>
<path d="M472 312H384C376.936 312 370.64 315.128 366.24 320H320C315.584 320 312 323.576 312 328V334.352L246.776 319.104C241.896 317.976 236.856 318.376 232.248 320.272L169.608 345.872C161.512 349.184 155.592 355.88 153.184 363.968L30.944 327.032C23.616 324.816 15.856 326.176 9.688 330.744C3.528 335.304 0 342.328 0 350V367.872C0 375.912 4 383.376 10.688 387.84L99.56 447.088C100.352 447.616 101.232 448 102.168 448.224L234.512 479.368C236.304 479.792 238.144 479.992 239.992 479.992C241.848 479.992 243.712 479.784 245.512 479.36L312 463.648V464C312 468.424 315.584 472 320 472H366.24C370.632 476.872 376.936 480 384 480H472C476.416 480 480 476.424 480 472V320C480 315.576 476.416 312 472 312ZM311.496 447.328L241.832 463.784C240.632 464.088 239.352 464.08 238.16 463.792L107.24 432.984L19.56 374.528C17.336 373.048 16 370.552 16 367.872V350C16 347.448 17.176 345.104 19.232 343.576C21.28 342.048 23.864 341.584 26.32 342.336L153.344 380.568C157.008 391.92 167.72 400 180.32 400H240C244.416 400 248 396.424 248 392C248 387.576 244.416 384 240 384H180.32C173.528 384 168 378.68 168 371.936C168 366.912 171.008 362.504 175.664 360.608L238.312 335.048C239.848 334.408 241.528 334.296 243.152 334.68L311.976 350.776L311.496 447.328ZM328 456V336H360V456H328ZM464 464H384C379.592 464 376 460.416 376 456V336C376 331.584 379.592 328 384 328H464V464Z" fill="black"/>
<path d="M433.432 448H409.432C405.016 448 401.432 444.424 401.432 440C401.432 435.576 405.016 432 409.432 432H433.432C437.848 432 441.432 435.576 441.432 440C441.432 444.424 437.848 448 433.432 448Z" fill="black"/>
</g>
<defs>
<clipPath id="clip0_214_2">
<rect width="480" height="480" fill="white"/>
</clipPath>
</defs>
</svg>
